<svg width="403" height="406" viewBox="0 0 403 406" fill="none" xmlns="http://www.w3.org/2000/svg">
<g id="Coin Clock">
<g id="Body">
<circle id="Coin - Outer" cx="201" cy="214" r="175" fill="#F4E137"/>
<circle id="Coin - Inner" cx="201" cy="214" r="150" fill="#E6E7DE"/>
<g id="Foot">
<rect id="Foot - Left" width="15" height="50" rx="7.5" transform="matrix(0.866025 0.5 -0.511876 0.859059 109.173 355.043)" fill="#F4E137"/>
<rect id="Foot - Right" width="15" height="50" rx="7.5" transform="matrix(0.866025 -0.5 0.5119 0.859045 282.878 362.514)" fill="#F4E137"/>
</g>
<g id="Euro Design">
<g id="Lines">
<line id="Line25" x1="321.5" y1="319" x2="321.5" y2="326" stroke="#C2C2C2"/>
<line id="Line24" x1="306.5" y1="334" x2="306.5" y2="341" stroke="#C2C2C2"/>
<line id="Line23" x1="291.5" y1="346" x2="291.5" y2="353" stroke="#C2C2C2"/>
<line id="Line22" x1="276.5" y1="355" x2="276.5" y2="362" stroke="#C2C2C2"/>
<line id="Line21" x1="261.5" y1="361" x2="261.5" y2="368" stroke="#C2C2C2"/>
<line id="Line20" x1="246.5" y1="367" x2="246.5" y2="374" stroke="#C2C2C2"/>
<line id="Line19" x1="321.5" y1="264" x2="321.5" y2="293" stroke="#C2C2C2"/>
<line id="Line18" x1="306.5" y1="274" x2="306.5" y2="300" stroke="#C2C2C2"/>
<line id="Line17" x1="291.5" y1="263" x2="291.5" y2="312" stroke="#C2C2C2"/>
<line id="Line16" x1="275.5" y1="322.046" x2="275.5" y2="263.046" stroke="#C2C2C2"/>
<line id="Line15" x1="261.5" y1="308" x2="261.5" y2="334" stroke="#C2C2C2"/>
<line id="Line14" x1="246.5" y1="281" x2="246.5" y2="344" stroke="#C2C2C2"/>
<line id="Line13" x1="321.5" y1="136" x2="321.5" y2="181" stroke="#C2C2C2"/>
<line id="Line12" x1="306.5" y1="120" x2="306.5" y2="181" stroke="#C2C2C2"/>
<line id="Line11" x1="276.5" y1="102" x2="276.5" y2="120" stroke="#C2C2C2"/>
<line id="Line10" x1="276.5" y1="170" x2="276.5" y2="181" stroke="#C2C2C2"/>
<line id="Line09" x1="291.5" y1="163" x2="291.5" y2="181" stroke="#C2C2C2"/>
<line id="Line08" x1="261.5" y1="92" x2="261.5" y2="146" stroke="#C2C2C2"/>
<line id="Line07" x1="246.5" y1="83" x2="246.5" y2="181" stroke="#C2C2C2"/>
<line id="Line06" x1="321.5" y1="103" x2="321.5" y2="110" stroke="#C2C2C2"/>
<line id="Line05" x1="306.5" y1="88" x2="306.5" y2="95" stroke="#C2C2C2"/>
<line id="Line04" x1="291.5" y1="76" x2="291.5" y2="83" stroke="#C2C2C2"/>
<line id="Line03" x1="276.5" y1="67" x2="276.5" y2="74" stroke="#C2C2C2"/>
<line id="Line02" x1="261.5" y1="60" x2="261.5" y2="67" stroke="#C2C2C2"/>
<line id="Line01" x1="246.5" y1="54" x2="246.5" y2="61" stroke="#C2C2C2"/>
</g>
<g id="Stars">
<path id="Star 12" d="M321 302L322.123 305.455H325.755L322.816 307.59L323.939 311.045L321 308.91L318.061 311.045L319.184 307.59L316.245 305.455H319.877L321 302Z" fill="#BDAE27"/>
<path id="Star 11" d="M306 317L307.123 320.455H310.755L307.816 322.59L308.939 326.045L306 323.91L303.061 326.045L304.184 322.59L301.245 320.455H304.877L306 317Z" fill="#BDAE27"/>
<path id="Star 10" d="M291 329L292.123 332.455H295.755L292.816 334.59L293.939 338.045L291 335.91L288.061 338.045L289.184 334.59L286.245 332.455H289.877L291 329Z" fill="#BDAE27"/>
<path id="Star 9" d="M276 339L277.123 342.455H280.755L277.816 344.59L278.939 348.045L276 345.91L273.061 348.045L274.184 344.59L271.245 342.455H274.877L276 339Z" fill="#BDAE27"/>
<path id="Star 8" d="M262 345L263.123 348.455H266.755L263.816 350.59L264.939 354.045L262 351.91L259.061 354.045L260.184 350.59L257.245 348.455H260.877L262 345Z" fill="#BDAE27"/>
<path id="Star 7" d="M246 353L247.123 356.455H250.755L247.816 358.59L248.939 362.045L246 359.91L243.061 362.045L244.184 358.59L241.245 356.455H244.877L246 353Z" fill="#BDAE27"/>
<path id="Star 6" d="M321 118L322.123 121.455H325.755L322.816 123.59L323.939 127.045L321 124.91L318.061 127.045L319.184 123.59L316.245 121.455H319.877L321 118Z" fill="#BDAE27"/>
<path id="Star 5" d="M306 101L307.123 104.455H310.755L307.816 106.59L308.939 110.045L306 107.91L303.061 110.045L304.184 106.59L301.245 104.455H304.877L306 101Z" fill="#BDAE27"/>
<path id="Star 4" d="M291 90L292.123 93.4549H295.755L292.816 95.5902L293.939 99.0451L291 96.9098L288.061 99.0451L289.184 95.5902L286.245 93.4549H289.877L291 90Z" fill="#BDAE27"/>
<path id="Star 3" d="M276 81L277.123 84.4549H280.755L277.816 86.5902L278.939 90.0451L276 87.9098L273.061 90.0451L274.184 86.5902L271.245 84.4549H274.877L276 81Z" fill="#BDAE27"/>
<path id="Star 2" d="M261 73L262.123 76.4549H265.755L262.816 78.5902L263.939 82.0451L261 79.9098L258.061 82.0451L259.184 78.5902L256.245 76.4549H259.877L261 73Z" fill="#BDAE27"/>
<path id="Star 1" d="M246 68L247.123 71.4549H250.755L247.816 73.5902L248.939 77.0451L246 74.9098L243.061 77.0451L244.184 73.5902L241.245 71.4549H244.877L246 68Z" fill="#BDAE27"/>
</g>
</g>
<g id="Clock Hands">
<circle id="Middle" cx="201" cy="214" r="10" fill="black"/>
<rect id="Clock - Minute" x="135" y="109.5" width="7" height="121" transform="rotate(-30 135 109.5)" fill="black"/>
<rect id="Clock - Hour" x="275.956" y="236.968" width="7.62685" height="75.926" transform="rotate(110 275.956 236.968)" fill="black"/>
</g>
</g>
<g id="Bells">
<path id="Bell - Left" fill-rule="evenodd" clip-rule="evenodd" d="M47.5311 32.6961C47.4235 32.579 47.3129 32.4637 47.1994 32.3502C42.806 27.9568 35.6829 27.9568 31.2895 32.3502C26.8961 36.7436 26.8961 43.8667 31.2895 48.2601C31.4938 48.4644 31.704 48.6592 31.9196 48.8445C22.1594 66.016 24.601 88.2407 39.2444 102.884L39.2445 102.884L102.884 39.2445L102.884 39.2445C87.8644 24.2248 64.869 22.042 47.5311 32.6961Z" fill="#F4E137"/>
<path id="Bell - Left_2" fill-rule="evenodd" clip-rule="evenodd" d="M370.188 47.5311C370.305 47.4235 370.42 47.3129 370.534 47.1994C374.927 42.806 374.927 35.6829 370.534 31.2895C366.141 26.8961 359.017 26.8961 354.624 31.2895C354.42 31.4938 354.225 31.704 354.04 31.9196C336.868 22.1594 314.643 24.601 300 39.2444L300 39.2445L363.64 102.884L363.64 102.884C378.659 87.8644 380.842 64.869 370.188 47.5311Z" fill="#F4E137"/>
</g>
</g>
</svg>
